# xmcd CD database file
#
# Track frame offsets:
#	150
#	18734
#	37104
#	57756
#	80053
#	100355
#	119039
#	137429
#	157066
#	175158
#	195057
#	213164
#	229521
#	246825
#	265732
#	285219
#
# Disc length: 4050 seconds
#
# Revision: 2
# Processed by: cddbd v1.4b42PL1 Copyright (c) Steve Scherf et al.
# Submitted via: CdAid 2001.05.15.01
#
DISCID=d80fd010
DTITLE=庚澄庆 - 爱*转动
DYEAR=1900
DGENRE=
TTITLE0=快乐颂
TTITLE1=老实情歌
TTITLE2=想哭就到我怀里哭
TTITLE3=靠近
TTITLE4=山顶黑狗兄
TTITLE5=请开窗
TTITLE6=让你妈妈NEW一下
TTITLE7=只有为你
TTITLE8=让我活过来
TTITLE9=爱，转动
TTITLE10=伤心歌手
TTITLE11=报告班长
TTITLE12=我知道我已经长大
TTITLE13=想念你
TTITLE14=让我一次爱个够爱
TTITLE15=爱你的回忆
EXTD=
EXTT0=
EXTT1=
EXTT2=
EXTT3=
EXTT4=
EXTT5=
EXTT6=
EXTT7=
EXTT8=
EXTT9=
EXTT10=
EXTT11=
EXTT12=
EXTT13=
EXTT14=
EXTT15=
PLAYORDER=
